<mxfile host="Electron" modified="2024-02-23T14:39:12.364Z" agent="Mozilla/5.0 (Windows NT 10.0; Win64; x64) AppleWebKit/537.36 (KHTML, like Gecko) draw.io/23.1.5 Chrome/120.0.6099.109 Electron/28.1.0 Safari/537.36" etag="BnDeAM9LiDVE3bCqQD61" version="23.1.5" type="device">
  <diagram name="Страница — 1" id="NPqp1WQ90EVT8o4r9iAg">
    <mxGraphModel dx="864" dy="516" grid="1" gridSize="10" guides="1" tooltips="1" connect="1" arrows="1" fold="1" page="1" pageScale="1" pageWidth="827" pageHeight="1169" background="none" math="0" shadow="0">
      <root>
        <mxCell id="0" />
        <mxCell id="1" parent="0" />
        <mxCell id="hpjMP8flAcUX4Gr9oKYs-30" style="edgeStyle=orthogonalEdgeStyle;rounded=0;orthogonalLoop=1;jettySize=auto;html=1;exitX=0.5;exitY=0.5;exitDx=0;exitDy=0;exitPerimeter=0;entryX=0;entryY=1;entryDx=0;entryDy=0;" edge="1" parent="1" source="7lI1p3przV0Xu-wnqrqL-2" target="hpjMP8flAcUX4Gr9oKYs-29">
          <mxGeometry relative="1" as="geometry" />
        </mxCell>
        <mxCell id="7lI1p3przV0Xu-wnqrqL-2" value="Operator" style="shape=umlActor;verticalLabelPosition=bottom;verticalAlign=top;html=1;outlineConnect=0;" parent="1" vertex="1">
          <mxGeometry x="388" y="320" width="30" height="60" as="geometry" />
        </mxCell>
        <mxCell id="7lI1p3przV0Xu-wnqrqL-3" value="Cashier" style="shape=umlActor;verticalLabelPosition=bottom;verticalAlign=top;html=1;outlineConnect=0;" parent="1" vertex="1">
          <mxGeometry x="526" y="320" width="30" height="60" as="geometry" />
        </mxCell>
        <mxCell id="hpjMP8flAcUX4Gr9oKYs-13" value="Client" style="shape=umlActor;verticalLabelPosition=bottom;verticalAlign=top;html=1;" vertex="1" parent="1">
          <mxGeometry x="405" y="40" width="30" height="60" as="geometry" />
        </mxCell>
        <mxCell id="hpjMP8flAcUX4Gr9oKYs-14" value="Снять деньги" style="ellipse;whiteSpace=wrap;html=1;" vertex="1" parent="1">
          <mxGeometry x="576" y="100" width="140" height="70" as="geometry" />
        </mxCell>
        <mxCell id="hpjMP8flAcUX4Gr9oKYs-15" value="Пополнить счет" style="ellipse;whiteSpace=wrap;html=1;" vertex="1" parent="1">
          <mxGeometry x="240" y="180" width="140" height="70" as="geometry" />
        </mxCell>
        <mxCell id="hpjMP8flAcUX4Gr9oKYs-16" value="Отрыть счет&amp;nbsp;" style="ellipse;whiteSpace=wrap;html=1;" vertex="1" parent="1">
          <mxGeometry x="140" y="100" width="140" height="70" as="geometry" />
        </mxCell>
        <mxCell id="hpjMP8flAcUX4Gr9oKYs-17" value="Закрыть счет" style="ellipse;whiteSpace=wrap;html=1;" vertex="1" parent="1">
          <mxGeometry x="435" y="180" width="140" height="70" as="geometry" />
        </mxCell>
        <mxCell id="hpjMP8flAcUX4Gr9oKYs-20" value="" style="endArrow=classic;html=1;rounded=0;exitX=0.5;exitY=0.5;exitDx=0;exitDy=0;exitPerimeter=0;entryX=0.5;entryY=0;entryDx=0;entryDy=0;" edge="1" parent="1" source="hpjMP8flAcUX4Gr9oKYs-13" target="hpjMP8flAcUX4Gr9oKYs-14">
          <mxGeometry width="50" height="50" relative="1" as="geometry">
            <mxPoint x="390" y="290" as="sourcePoint" />
            <mxPoint x="440" y="240" as="targetPoint" />
            <Array as="points">
              <mxPoint x="646" y="70" />
            </Array>
          </mxGeometry>
        </mxCell>
        <mxCell id="hpjMP8flAcUX4Gr9oKYs-21" value="Include" style="endArrow=open;endSize=12;dashed=1;html=1;rounded=0;exitX=1;exitY=0.5;exitDx=0;exitDy=0;entryX=0.5;entryY=0;entryDx=0;entryDy=0;" edge="1" parent="1" source="hpjMP8flAcUX4Gr9oKYs-16" target="hpjMP8flAcUX4Gr9oKYs-15">
          <mxGeometry width="160" relative="1" as="geometry">
            <mxPoint x="330" y="270" as="sourcePoint" />
            <mxPoint x="490" y="270" as="targetPoint" />
          </mxGeometry>
        </mxCell>
        <mxCell id="hpjMP8flAcUX4Gr9oKYs-22" value="" style="endArrow=classic;html=1;rounded=0;exitX=0.5;exitY=0.5;exitDx=0;exitDy=0;exitPerimeter=0;entryX=0.5;entryY=0;entryDx=0;entryDy=0;" edge="1" parent="1" source="hpjMP8flAcUX4Gr9oKYs-13" target="hpjMP8flAcUX4Gr9oKYs-16">
          <mxGeometry width="50" height="50" relative="1" as="geometry">
            <mxPoint x="390" y="290" as="sourcePoint" />
            <mxPoint x="440" y="240" as="targetPoint" />
            <Array as="points">
              <mxPoint x="210" y="70" />
            </Array>
          </mxGeometry>
        </mxCell>
        <mxCell id="hpjMP8flAcUX4Gr9oKYs-23" value="Extend" style="endArrow=open;endSize=12;dashed=1;html=1;rounded=0;exitX=1;exitY=0;exitDx=0;exitDy=0;entryX=0;entryY=0.5;entryDx=0;entryDy=0;" edge="1" parent="1" source="hpjMP8flAcUX4Gr9oKYs-17" target="hpjMP8flAcUX4Gr9oKYs-14">
          <mxGeometry width="160" relative="1" as="geometry">
            <mxPoint x="305" y="270" as="sourcePoint" />
            <mxPoint x="465" y="270" as="targetPoint" />
          </mxGeometry>
        </mxCell>
        <mxCell id="hpjMP8flAcUX4Gr9oKYs-24" style="edgeStyle=orthogonalEdgeStyle;rounded=0;orthogonalLoop=1;jettySize=auto;html=1;exitX=0.5;exitY=1;exitDx=0;exitDy=0;entryX=0.5;entryY=0.5;entryDx=0;entryDy=0;entryPerimeter=0;" edge="1" parent="1" source="hpjMP8flAcUX4Gr9oKYs-14" target="7lI1p3przV0Xu-wnqrqL-3">
          <mxGeometry relative="1" as="geometry">
            <Array as="points">
              <mxPoint x="650" y="170" />
              <mxPoint x="650" y="350" />
            </Array>
          </mxGeometry>
        </mxCell>
        <mxCell id="hpjMP8flAcUX4Gr9oKYs-25" style="edgeStyle=orthogonalEdgeStyle;rounded=0;orthogonalLoop=1;jettySize=auto;html=1;exitX=0.5;exitY=1;exitDx=0;exitDy=0;entryX=0.5;entryY=0.5;entryDx=0;entryDy=0;entryPerimeter=0;" edge="1" parent="1" source="hpjMP8flAcUX4Gr9oKYs-15" target="7lI1p3przV0Xu-wnqrqL-2">
          <mxGeometry relative="1" as="geometry">
            <Array as="points">
              <mxPoint x="310" y="350" />
            </Array>
          </mxGeometry>
        </mxCell>
        <mxCell id="hpjMP8flAcUX4Gr9oKYs-27" style="edgeStyle=orthogonalEdgeStyle;rounded=0;orthogonalLoop=1;jettySize=auto;html=1;exitX=0;exitY=0.5;exitDx=0;exitDy=0;entryX=0.5;entryY=0;entryDx=0;entryDy=0;entryPerimeter=0;" edge="1" parent="1" source="hpjMP8flAcUX4Gr9oKYs-17" target="7lI1p3przV0Xu-wnqrqL-2">
          <mxGeometry relative="1" as="geometry" />
        </mxCell>
        <mxCell id="hpjMP8flAcUX4Gr9oKYs-29" value="Пополнить счет" style="ellipse;whiteSpace=wrap;html=1;" vertex="1" parent="1">
          <mxGeometry x="426" y="270" width="100" height="40" as="geometry" />
        </mxCell>
        <mxCell id="hpjMP8flAcUX4Gr9oKYs-31" style="edgeStyle=orthogonalEdgeStyle;rounded=0;orthogonalLoop=1;jettySize=auto;html=1;exitX=1;exitY=1;exitDx=0;exitDy=0;entryX=0.5;entryY=0.5;entryDx=0;entryDy=0;entryPerimeter=0;" edge="1" parent="1" source="hpjMP8flAcUX4Gr9oKYs-29" target="7lI1p3przV0Xu-wnqrqL-3">
          <mxGeometry relative="1" as="geometry">
            <Array as="points">
              <mxPoint x="511" y="350" />
            </Array>
          </mxGeometry>
        </mxCell>
      </root>
    </mxGraphModel>
  </diagram>
</mxfile>
